<svg width="90" height="91" viewBox="0 0 90 91" fill="none" xmlns="http://www.w3.org/2000/svg">
<g id="arrow">
<path id="Vector" d="M59.7375 43.4637L28.3894 13.5949C27.8664 13.0963 27.1714 12.8181 26.4488 12.8181C25.7261 12.8181 25.0312 13.0963 24.5082 13.5949L24.4744 13.6287C24.22 13.8704 24.0174 14.1613 23.8789 14.4838C23.7405 14.8063 23.6691 15.1536 23.6691 15.5046C23.6691 15.8556 23.7405 16.2028 23.8789 16.5253C24.0174 16.8478 24.22 17.1388 24.4744 17.3805L53.9944 45.5055L24.4744 73.6193C24.22 73.861 24.0174 74.152 23.8789 74.4745C23.7405 74.797 23.6691 75.1443 23.6691 75.4952C23.6691 75.8462 23.7405 76.1935 23.8789 76.516C24.0174 76.8385 24.22 77.1294 24.4744 77.3711L24.5082 77.4049C25.0312 77.9035 25.7261 78.1817 26.4488 78.1817C27.1714 78.1817 27.8664 77.9035 28.3894 77.4049L59.7375 47.5362C60.0132 47.2735 60.2327 46.9576 60.3827 46.6075C60.5327 46.2575 60.61 45.8807 60.61 45.4999C60.61 45.1191 60.5327 44.7423 60.3827 44.3923C60.2327 44.0422 60.0132 43.7263 59.7375 43.4637Z" fill="#373839"/>
</g>
</svg>
