<svg width="90" height="91" viewBox="0 0 90 91" fill="none" xmlns="http://www.w3.org/2000/svg">
<g id="arrow">
<path id="Vector" d="M30.2626 47.5363L61.6107 77.4051C62.1338 77.9037 62.8287 78.1819 63.5513 78.1819C64.274 78.1819 64.9689 77.9037 65.4919 77.4051L65.5257 77.3713C65.7801 77.1296 65.9828 76.8387 66.1212 76.5162C66.2597 76.1937 66.3311 75.8464 66.3311 75.4954C66.3311 75.1444 66.2597 74.7972 66.1212 74.4747C65.9828 74.1522 65.7801 73.8612 65.5257 73.6195L36.0057 45.4945L65.5257 17.3807C65.7801 17.139 65.9828 16.848 66.1212 16.5255C66.2597 16.203 66.3311 15.8557 66.3311 15.5048C66.3311 15.1538 66.2597 14.8065 66.1212 14.484C65.9828 14.1615 65.7801 13.8706 65.5257 13.6289L65.4919 13.5951C64.9689 13.0965 64.274 12.8183 63.5513 12.8183C62.8287 12.8183 62.1338 13.0965 61.6107 13.5951L30.2626 43.4638C29.9869 43.7265 29.7674 44.0424 29.6174 44.3925C29.4675 44.7425 29.3901 45.1193 29.3901 45.5001C29.3901 45.8809 29.4675 46.2577 29.6174 46.6077C29.7674 46.9578 29.9869 47.2737 30.2626 47.5363Z" fill="#373839"/>
</g>
</svg>
