<svg width="20" height="20" viewBox="0 0 20 20" fill="none" xmlns="http://www.w3.org/2000/svg">
<g id="Bell">
<path id="Vector" d="M8.58333 17.5C8.72282 17.7537 8.92787 17.9653 9.17708 18.1126C9.42628 18.26 9.71048 18.3378 10 18.3378C10.2895 18.3378 10.5737 18.26 10.8229 18.1126C11.0721 17.9653 11.2772 17.7537 11.4167 17.5M5 6.66666C5 5.34057 5.52678 4.0688 6.46447 3.13112C7.40215 2.19344 8.67392 1.66666 10 1.66666C11.3261 1.66666 12.5979 2.19344 13.5355 3.13112C14.4732 4.0688 15 5.34057 15 6.66666C15 12.5 17.5 14.1667 17.5 14.1667H2.5C2.5 14.1667 5 12.5 5 6.66666Z" stroke="#0BBF13" stroke-opacity="0.99" stroke-width="2" stroke-linecap="round" stroke-linejoin="round"/>
</g>
</svg>
