<svg width="26" height="22" viewBox="0 0 26 22" fill="none" xmlns="http://www.w3.org/2000/svg">
<g id="Group">
<path id="Vector" d="M10.5 16V18.5C10.5 19.163 10.7634 19.7989 11.2322 20.2678C11.7011 20.7366 12.337 21 13 21H21.75C22.413 21 23.0489 20.7366 23.5178 20.2678C23.9866 19.7989 24.25 19.163 24.25 18.5L24.25 3.5C24.25 2.83696 23.9866 2.20107 23.5178 1.73223C23.0489 1.26339 22.413 1 21.75 1H13C12.337 1 11.7011 1.26339 11.2322 1.73223C10.7634 2.20107 10.5 2.83696 10.5 3.5V6" stroke="#373839" stroke-width="2" stroke-linecap="round" stroke-linejoin="round"/>
<path id="Vector_2" d="M16.75 11L1.75 11M1.75 11L5.5 14.75M1.75 11L5.5 7.25" stroke="#373839" stroke-width="2" stroke-linecap="round" stroke-linejoin="round"/>
</g>
</svg>
