<svg width="70" height="70" viewBox="0 0 70 70" fill="none" xmlns="http://www.w3.org/2000/svg">
<g id="calender">
<path id="Vector" d="M56.8749 11.6667H48.1249V7.29171C48.1249 6.90493 47.9713 6.534 47.6978 6.26051C47.4243 5.98702 47.0534 5.83337 46.6666 5.83337C46.2798 5.83337 45.9089 5.98702 45.6354 6.26051C45.3619 6.534 45.2083 6.90493 45.2083 7.29171V11.6667H24.7916V7.29171C24.7916 6.90493 24.6379 6.534 24.3645 6.26051C24.091 5.98702 23.72 5.83337 23.3333 5.83337C22.9465 5.83337 22.5755 5.98702 22.3021 6.26051C22.0286 6.534 21.8749 6.90493 21.8749 7.29171V11.6667H13.1249C11.1918 11.669 9.33844 12.438 7.97149 13.8049C6.60454 15.1719 5.83557 17.0252 5.83325 18.9584V56.875C5.83557 58.8082 6.60454 60.6615 7.97149 62.0285C9.33844 63.3954 11.1918 64.1644 13.1249 64.1667H56.8749C58.8083 64.1652 60.6621 63.3964 62.0292 62.0293C63.3963 60.6622 64.165 58.8084 64.1666 56.875V18.9584C64.165 17.025 63.3963 15.1712 62.0292 13.8041C60.6621 12.437 58.8083 11.6683 56.8749 11.6667ZM61.2499 56.875C61.2499 58.0354 60.789 59.1482 59.9685 59.9686C59.148 60.7891 58.0352 61.25 56.8749 61.25H13.1249C11.9646 61.25 10.8518 60.7891 10.0313 59.9686C9.21086 59.1482 8.74992 58.0354 8.74992 56.875V32.0834H61.2499V56.875ZM61.2499 29.1667H8.74992V18.9584C8.74992 16.5434 10.7041 14.5834 13.1249 14.5834H21.8749V18.9584C21.8749 19.3451 22.0286 19.7161 22.3021 19.9896C22.5755 20.2631 22.9465 20.4167 23.3333 20.4167C23.72 20.4167 24.091 20.2631 24.3645 19.9896C24.6379 19.7161 24.7916 19.3451 24.7916 18.9584V14.5834H45.2083V18.9584C45.2083 19.3451 45.3619 19.7161 45.6354 19.9896C45.9089 20.2631 46.2798 20.4167 46.6666 20.4167C47.0534 20.4167 47.4243 20.2631 47.6978 19.9896C47.9713 19.7161 48.1249 19.3451 48.1249 18.9584V14.5834H56.8749C58.0352 14.5834 59.148 15.0443 59.9685 15.8648C60.789 16.6853 61.2499 17.7981 61.2499 18.9584V29.1667Z" fill="#D61FDA"/>
</g>
</svg>
