<svg width="30" height="30" viewBox="0 0 30 30" fill="none" xmlns="http://www.w3.org/2000/svg">
<g id="Team">
<path id="Vector" d="M15 4.6875C14.7127 4.6875 14.4283 4.74408 14.1629 4.85401C13.8975 4.96395 13.6563 5.12508 13.4532 5.3282C13.2501 5.53133 13.0889 5.77248 12.979 6.03788C12.8691 6.30328 12.8125 6.58773 12.8125 6.875C12.8125 7.16227 12.8691 7.44672 12.979 7.71212C13.0889 7.97752 13.2501 8.21867 13.4532 8.4218C13.6563 8.62492 13.8975 8.78605 14.1629 8.89599C14.4283 9.00592 14.7127 9.0625 15 9.0625C15.5802 9.0625 16.1366 8.83203 16.5468 8.4218C16.957 8.01156 17.1875 7.45516 17.1875 6.875C17.1875 6.29484 16.957 5.73844 16.5468 5.3282C16.1366 4.91797 15.5802 4.6875 15 4.6875ZM11.25 6.875C11.25 5.88044 11.6451 4.92661 12.3483 4.22335C13.0516 3.52009 14.0054 3.125 15 3.125C15.9946 3.125 16.9484 3.52009 17.6517 4.22335C18.3549 4.92661 18.75 5.88044 18.75 6.875C18.75 7.86956 18.3549 8.82339 17.6517 9.52665C16.9484 10.2299 15.9946 10.625 15 10.625C14.0054 10.625 13.0516 10.2299 12.3483 9.52665C11.6451 8.82339 11.25 7.86956 11.25 6.875ZM23.125 5.9375C22.7106 5.9375 22.3132 6.10212 22.0201 6.39515C21.7271 6.68817 21.5625 7.0856 21.5625 7.5C21.5625 7.9144 21.7271 8.31183 22.0201 8.60485C22.3132 8.89788 22.7106 9.0625 23.125 9.0625C23.5394 9.0625 23.9368 8.89788 24.2299 8.60485C24.5229 8.31183 24.6875 7.9144 24.6875 7.5C24.6875 7.0856 24.5229 6.68817 24.2299 6.39515C23.9368 6.10212 23.5394 5.9375 23.125 5.9375ZM20 7.5C20 6.6712 20.3292 5.87634 20.9153 5.29029C21.5013 4.70424 22.2962 4.375 23.125 4.375C23.9538 4.375 24.7487 4.70424 25.3347 5.29029C25.9208 5.87634 26.25 6.6712 26.25 7.5C26.25 8.3288 25.9208 9.12366 25.3347 9.70971C24.7487 10.2958 23.9538 10.625 23.125 10.625C22.2962 10.625 21.5013 10.2958 20.9153 9.70971C20.3292 9.12366 20 8.3288 20 7.5ZM5.3125 7.5C5.3125 7.0856 5.47712 6.68817 5.77015 6.39515C6.06317 6.10212 6.4606 5.9375 6.875 5.9375C7.2894 5.9375 7.68683 6.10212 7.97986 6.39515C8.27288 6.68817 8.4375 7.0856 8.4375 7.5C8.4375 7.9144 8.27288 8.31183 7.97986 8.60485C7.68683 8.89788 7.2894 9.0625 6.875 9.0625C6.4606 9.0625 6.06317 8.89788 5.77015 8.60485C5.47712 8.31183 5.3125 7.9144 5.3125 7.5ZM6.875 4.375C6.0462 4.375 5.25134 4.70424 4.66529 5.29029C4.07924 5.87634 3.75 6.6712 3.75 7.5C3.75 8.3288 4.07924 9.12366 4.66529 9.70971C5.25134 10.2958 6.0462 10.625 6.875 10.625C7.7038 10.625 8.49866 10.2958 9.08471 9.70971C9.67076 9.12366 10 8.3288 10 7.5C10 6.6712 9.67076 5.87634 9.08471 5.29029C8.49866 4.70424 7.7038 4.375 6.875 4.375ZM9.375 14.5312C9.375 13.8268 9.65486 13.1511 10.153 12.653C10.6511 12.1549 11.3268 11.875 12.0313 11.875H17.9688C18.6732 11.875 19.3489 12.1549 19.847 12.653C20.3451 13.1511 20.625 13.8268 20.625 14.5312V21.25C20.625 22.7418 20.0324 24.1726 18.9775 25.2275C17.9226 26.2824 16.4918 26.875 15 26.875C13.5082 26.875 12.0774 26.2824 11.0225 25.2275C9.96763 24.1726 9.375 22.7418 9.375 21.25V14.5312ZM15 25.3125C16.0774 25.3125 17.1108 24.8845 17.8726 24.1226C18.6345 23.3608 19.0625 22.3274 19.0625 21.25V14.5312C19.0625 14.2412 18.9473 13.963 18.7421 13.7579C18.537 13.5527 18.2588 13.4375 17.9688 13.4375H12.0313C11.7412 13.4375 11.463 13.5527 11.2579 13.7579C11.0527 13.963 10.9375 14.2412 10.9375 14.5312V21.25C10.9375 22.3274 11.3655 23.3608 12.1274 24.1226C12.8892 24.8845 13.9226 25.3125 15 25.3125ZM6.875 23.4375C7.39766 23.4383 7.91011 23.2928 8.35438 23.0175C8.49125 23.5337 8.68688 24.0256 8.93313 24.4862C8.26646 24.8416 7.51912 25.0184 6.76389 24.9992C6.00865 24.98 5.27125 24.7656 4.62349 24.3768C3.97573 23.988 3.43969 23.4381 3.06756 22.7806C2.69543 22.1231 2.4999 21.3805 2.5 20.625V14.5319C2.49992 14.183 2.56856 13.8375 2.70202 13.5152C2.83547 13.1928 3.03111 12.8999 3.27778 12.6532C3.52444 12.4065 3.81729 12.2108 4.1396 12.0773C4.46191 11.9437 4.80737 11.875 5.15625 11.875H8.59375C8.77375 11.875 8.95 11.8931 9.11938 11.9269C8.73014 12.3613 8.4433 12.8775 8.28 13.4375H5.15625C4.86617 13.4375 4.58797 13.5527 4.38285 13.7579C4.17773 13.963 4.0625 14.2412 4.0625 14.5312V20.625C4.0625 21.3709 4.35882 22.0863 4.88626 22.6137C5.41371 23.1412 6.12908 23.4375 6.875 23.4375ZM23.125 25C22.4072 25.0012 21.7002 24.8249 21.0669 24.4869C21.3131 24.0256 21.5088 23.5337 21.6456 23.0175C22.0717 23.281 22.5604 23.4259 23.0612 23.4373C23.5621 23.4486 24.0569 23.326 24.4944 23.0821C24.932 22.8382 25.2965 22.4818 25.5502 22.0498C25.8039 21.6179 25.9376 21.126 25.9375 20.625V14.5312C25.9375 14.2412 25.8223 13.963 25.6172 13.7579C25.412 13.5527 25.1338 13.4375 24.8438 13.4375H21.72C21.5565 12.8775 21.2695 12.3612 20.88 11.9269C21.0506 11.8931 21.2263 11.875 21.4063 11.875H24.8438C25.5482 11.875 26.2239 12.1549 26.722 12.653C27.2201 13.1511 27.5 13.8268 27.5 14.5312V20.625C27.5 21.7853 27.0391 22.8981 26.2186 23.7186C25.3981 24.5391 24.2853 25 23.125 25Z" fill="#373839"/>
</g>
</svg>
